<svg xmlns="http://www.w3.org/2000/svg" viewBox="0 0 24 24" id="shopify"><path d="M14.868 23.979a.5.5 0 0 1-.101-.989l6.732-1.399c-.372-2.528-2.134-14.51-2.4-16.297-.363-.024-1.036-.073-1.617-.116a.497.497 0 0 1-.282-.115L15.434 3.6a.5.5 0 1 1 .638-.769l1.644 1.361c.419.03 1.529.112 1.652.116.333 0 .631.26.686.604.019.105 2.089 14.179 2.504 16.998a.498.498 0 0 1-.393.562l-7.194 1.495a.367.367 0 0 1-.103.012zm4.477-18.67h.013-.013z"></path><path d="M14.869 24a.488.488 0 0 1-.093-.009l-12.931-2.44a.5.5 0 0 1-.403-.555c.068-.533 1.675-13.049 1.747-13.494.096-.792.248-.967 1.079-1.23v.001c.619-.202 10.021-3.154 11.274-3.503l-.003-.012c.182-.062.441-.027.575.112a.5.5 0 0 1 .138.367l-.884 20.284a.496.496 0 0 1-.189.37.493.493 0 0 1-.31.109zM2.494 20.655l11.9 2.246.829-19.001A4488.665 4488.665 0 0 0 4.57 7.225c-.132.042-.33.104-.377.136.02 0-.001.176-.014.281-.056.351-1.094 8.406-1.685 13.013zM4.419 6.748h.01-.01z"></path><path d="M8.617 20c-2.289 0-3.46-1.449-3.509-1.511a.498.498 0 0 1-.086-.455l.569-1.883a.498.498 0 0 1 .808-.232c.25.217 1.092.838 1.679.838.349 0 .358-.338.358-.341 0-.387-.279-.637-.772-1.047-.661-.549-1.565-1.3-1.565-2.886-.019-1.203.416-2.323 1.225-3.143C8.188 8.463 9.406 8 10.849 8c1.21 0 1.84.355 1.908.396a.5.5 0 0 1 .217.591l-.832 2.45a.5.5 0 0 1-.255.288l-.018.009a.498.498 0 0 1-.454-.008c-.006-.003-.622-.324-1.327-.324-.824 0-.824.385-.824.53 0 .188.415.5.78.774.875.658 2.073 1.559 2.073 3.401 0 2.292-1.439 3.893-3.5 3.893zm-2.555-1.954c.341.319 1.189.954 2.555.954 1.495 0 2.5-1.162 2.5-2.893 0-1.344-.889-2.012-1.674-2.602-.606-.456-1.179-.887-1.179-1.574 0-.74.479-1.53 1.824-1.53.495 0 .946.111 1.273.223l.511-1.503A4.039 4.039 0 0 0 10.849 9c-1.169 0-2.141.36-2.813 1.041-.619.629-.952 1.494-.938 2.436 0 1.124.585 1.61 1.204 2.125.531.44 1.133.94 1.133 1.815 0 .659-.508 1.341-1.358 1.341-.626 0-1.278-.335-1.735-.635l-.28.923zm5.606-6.771h.01-.01zm-5.263-4.63a.5.5 0 0 1-.481-.639c.191-.661 1.959-6.448 4.906-5.98.718.111 1.294.484 1.666 1.078.658 1.053.543 2.606.316 3.338a.5.5 0 0 1-.955-.295c.141-.457.285-1.723-.209-2.513-.219-.351-.536-.553-.971-.62C8.93.745 7.307 4.829 6.885 6.283a.5.5 0 0 1-.48.362z"></path><path d="M9.325 5.732a.5.5 0 0 1-.497-.556C9.005 3.63 10.061.708 12.786.708c1.599 0 2.714 1.453 2.714 2.757a.5.5 0 0 1-1 0c0-.718-.61-1.757-1.714-1.757-2.525 0-2.961 3.546-2.965 3.581a.5.5 0 0 1-.496.443z"></path></svg>